<svg width="28" height="29" viewBox="0 0 28 29" fill="none" xmlns="http://www.w3.org/2000/svg">
<path d="M10.8233 22.1299C7.80417 22.1299 5.24517 21.0818 3.14634 18.9855C1.04878 16.8904 0 14.3336 0 11.315C0 8.29634 1.04878 5.73887 3.14634 3.64257C5.24391 1.54627 7.80291 0.498743 10.8233 0.500001C13.8438 0.501259 16.4022 1.54941 18.4985 3.64446C20.5948 5.7395 21.6436 8.29634 21.6448 11.315C21.6448 12.6261 21.4125 13.8951 20.9479 15.1219C20.4833 16.3487 19.8727 17.3981 19.116 18.2701L27.7158 26.8617C27.8921 27.0379 27.9865 27.2549 27.9991 27.5129C28.0104 27.7683 27.916 27.9967 27.7158 28.198C27.5144 28.3993 27.2915 28.5 27.0473 28.5C26.803 28.5 26.5802 28.3993 26.3787 28.198L17.7808 19.6045C16.8365 20.4086 15.7506 21.0308 14.523 21.4712C13.2955 21.9116 12.0616 22.1318 10.8215 22.1318M10.8215 20.2444C13.327 20.2444 15.4428 19.3825 17.1689 17.6586C18.8938 15.9348 19.7562 13.8202 19.7562 11.315C19.7562 8.80972 18.8944 6.6958 17.1708 4.97321C15.4472 3.25061 13.332 2.38869 10.8252 2.38743C8.31849 2.38743 6.20267 3.24935 4.47778 4.97321C2.75289 6.69706 1.88982 8.81098 1.88856 11.315C1.8873 13.819 2.74975 15.9329 4.47589 17.6567C6.20204 19.3806 8.31723 20.2425 10.8215 20.2425" fill="black"/>
</svg>
